<svg width="318" height="318" viewBox="0 0 318 318" fill="none" xmlns="http://www.w3.org/2000/svg">
<mask id="path-1-inside-1_309_6" fill="white">
<path d="M318 159C318 246.813 246.813 318 159 318C71.1867 318 0 246.813 0 159C0 71.1867 71.1867 0 159 0C246.813 0 318 71.1867 318 159Z"/>
</mask>
<path d="M162.536 87.4645C160.583 85.5118 157.417 85.5118 155.464 87.4645L123.645 119.284C121.692 121.237 121.692 124.403 123.645 126.355C125.597 128.308 128.763 128.308 130.716 126.355L159 98.0711L187.284 126.355C189.237 128.308 192.403 128.308 194.355 126.355C196.308 124.403 196.308 121.237 194.355 119.284L162.536 87.4645ZM164 227V91H154V227H164ZM308 159C308 241.29 241.29 308 159 308V328C252.336 328 328 252.336 328 159H308ZM159 308C76.7096 308 10 241.29 10 159H-10C-10 252.336 65.6639 328 159 328V308ZM10 159C10 76.7096 76.7096 10 159 10V-10C65.6639 -10 -10 65.6639 -10 159H10ZM159 10C241.29 10 308 76.7096 308 159H328C328 65.6639 252.336 -10 159 -10V10Z" fill="#BEBEBE" mask="url(#path-1-inside-1_309_6)"/>
</svg>
